<?xml version="1.0" encoding="iso-8859-1"?>
<!-- Generator: Adobe Illustrator 19.0.0, SVG Export Plug-In . SVG Version: 6.00 Build 0)  -->
<svg version="1.1" id="Capa_1" xmlns="http://www.w3.org/2000/svg" xmlns:xlink="http://www.w3.org/1999/xlink" x="0px" y="0px"
	 viewBox="0 0 512 512" style="enable-background:new 0 0 512 512;" xml:space="preserve">
<circle style="fill:#DAE5EA;" cx="256" cy="256" r="256"/>
<path style="fill:#FFFFFF;" d="M391,473.6c28.1-17.5,52.5-40.2,71.9-66.8L105.3,49.1C78.6,68.5,55.9,93,38.4,121L391,473.6z"/>
<circle style="fill:#E04F5F;" cx="256" cy="256" r="81.9"/>
<g style="opacity:0.25;">
	<path style="fill:#222020;" d="M256,489.7C127.1,489.7,22.3,384.9,22.3,256S127.1,22.3,256,22.3S489.7,127.2,489.7,256
		S384.9,489.7,256,489.7z M256,30.3C131.5,30.3,30.3,131.5,30.3,256S131.5,481.7,256,481.7S481.7,380.5,481.7,256
		S380.5,30.3,256,30.3z"/>
</g>
<g>
</g>
<g>
</g>
<g>
</g>
<g>
</g>
<g>
</g>
<g>
</g>
<g>
</g>
<g>
</g>
<g>
</g>
<g>
</g>
<g>
</g>
<g>
</g>
<g>
</g>
<g>
</g>
<g>
</g>
</svg>
