<?xml version="1.0" encoding="iso-8859-1"?>
<!-- Generator: Adobe Illustrator 19.0.0, SVG Export Plug-In . SVG Version: 6.00 Build 0)  -->
<svg version="1.1" id="Capa_1" xmlns="http://www.w3.org/2000/svg" xmlns:xlink="http://www.w3.org/1999/xlink" x="0px" y="0px"
	 viewBox="0 0 512 512" style="enable-background:new 0 0 512 512;" xml:space="preserve">
<path style="fill:#FEDB41;" d="M499.64,184.203l-153.047-30.671l-79.131-135.36c-3.066-4.908-7.972-7.361-12.574-7.668
	c-5.521-0.307-11.041,2.453-14.11,7.974l-76.37,137.2L11.977,189.416c-11.348,2.455-15.95,16.561-7.974,25.15l106.122,114.708
	l-15.031,155.5c-1.226,11.655,10.736,20.242,21.469,15.335l138.325-63.488l3.68-1.84l142.926,62.26
	c11.041,4.602,22.696-3.985,21.468-15.948l-18.401-154.887l103.667-116.855C515.897,200.458,511.295,186.35,499.64,184.203z"/>
<path style="fill:#FFCC33;" d="M508.229,209.353L404.562,326.208l18.401,154.887c1.228,11.962-10.427,20.548-21.468,15.948
	l-142.926-62.26l-3.68,1.84V10.505c4.602,0.307,9.508,2.759,12.574,7.668l79.131,135.36l153.047,30.671
	C511.295,186.35,515.897,200.458,508.229,209.353z"/>
<path style="fill:#FEA832;" d="M382.785,223.461l-75.143-15.029l-38.951-65.943c-3.068-5.213-8.282-7.668-13.802-7.668
	c-5.213,0-10.122,2.455-12.881,7.668l-37.419,67.169l-74.836,16.563c-11.655,2.453-15.948,16.561-7.974,25.15l52.14,56.433
	l-7.668,76.37c-0.919,11.655,11.041,20.55,21.777,15.335l66.862-30.671l2.761-1.226l70.543,30.364
	c10.734,4.908,22.696-3.987,21.163-15.642l-8.896-76.37l50.914-57.354C399.041,239.717,394.44,225.608,382.785,223.461z"/>
<path style="fill:#FE9923;" d="M391.374,248.611l-50.914,57.354l8.896,76.37c1.534,11.655-10.429,20.55-21.163,15.642
	l-70.543-30.364l-2.761,1.226V134.821c5.521,0,10.734,2.455,13.802,7.668l38.951,65.943l75.143,15.029
	C394.44,225.608,399.041,239.717,391.374,248.611z"/>
<g>
</g>
<g>
</g>
<g>
</g>
<g>
</g>
<g>
</g>
<g>
</g>
<g>
</g>
<g>
</g>
<g>
</g>
<g>
</g>
<g>
</g>
<g>
</g>
<g>
</g>
<g>
</g>
<g>
</g>
</svg>
