<?xml version="1.0" encoding="iso-8859-1"?>
<!-- Generator: Adobe Illustrator 19.0.0, SVG Export Plug-In . SVG Version: 6.00 Build 0)  -->
<svg version="1.1" id="Capa_1" xmlns="http://www.w3.org/2000/svg" xmlns:xlink="http://www.w3.org/1999/xlink" x="0px" y="0px"
	 viewBox="0 0 469.333 469.333" style="enable-background:new 0 0 469.333 469.333;" xml:space="preserve">
<path style="fill:#303C42;" d="M426.667,0h-384C19.146,0,0,19.135,0,42.667V256c0,23.531,19.146,42.667,42.667,42.667H192v128
	c0,29.313,60.813,42.667,117.333,42.667s117.333-13.354,117.333-42.667v-128c23.521,0,42.667-19.135,42.667-42.667V42.667
	C469.333,19.135,450.188,0,426.667,0z"/>
<g>
	<path style="fill:#4EACDF;" d="M448,42.667v41.589c-32.574-4.723-58.199-30.348-62.922-62.922h41.589
		C438.438,21.333,448,30.906,448,42.667z"/>
	<path style="fill:#4EACDF;" d="M42.667,21.333h41.589c-4.723,32.574-30.348,58.199-62.922,62.922V42.667
		C21.333,30.906,30.896,21.333,42.667,21.333z"/>
	<path style="fill:#4EACDF;" d="M21.333,256v-41.589c32.574,4.723,58.199,30.348,62.922,62.922H42.667
		C30.896,277.333,21.333,267.76,21.333,256z"/>
</g>
<path style="fill:#80C3E8;" d="M105.589,277.333c-4.986-44.32-39.935-79.27-84.255-84.255v-87.49
	c44.32-4.986,79.27-39.935,84.255-84.255h258.156c4.986,44.32,39.935,79.27,84.255,84.255v87.363
	c-38.331,4.281-70.046,30.982-80.885,68.052c-17.967-3.345-38.108-5.004-57.781-5.004c-40.28,0-82.62,6.826-103.695,21.333H105.589z
	"/>
<path style="fill:#FFD553;" d="M213.333,298.796c1.699-5.932,33.663-21.462,96-21.462c61.854,0,93.813,15.302,95.958,21.333
	C403.146,304.698,371.188,320,309.333,320c-62.337,0-94.301-15.531-96-21.151V298.796z"/>
<g>
	<path style="fill:#FFCA28;" d="M213.333,324.561c22.697,11.388,60.184,16.772,96,16.772c35.822,0,73.313-5.385,96.008-16.776
		l0.013,37.953c-1.625,5.917-33.604,21.49-96.021,21.49s-94.396-15.573-96-21.333V324.561z"/>
	<path style="fill:#FFCA28;" d="M309.333,448c-62.417,0-94.396-15.573-96-21.333v-38.105c22.697,11.388,60.184,16.772,96,16.772
		c35.822,0,73.313-5.385,96.008-16.776l0.013,37.953C403.729,432.427,371.75,448,309.333,448z"/>
</g>
<g>
	<ellipse style="fill:#4EACDF;" cx="234.667" cy="149.333" rx="74.667" ry="96"/>
	<path style="fill:#4EACDF;" d="M426.667,277.333h-13.638c-6.587-4.534-15.184-8.335-25.229-11.388
		c8.475-27.536,31.826-47.568,60.201-51.659V256C448,267.76,438.438,277.333,426.667,277.333z"/>
</g>
<g>
	<path style="fill:#303C42;" d="M106.667,128c-11.771,0-21.333,9.573-21.333,21.333c0,11.76,9.563,21.333,21.333,21.333
		S128,161.094,128,149.333C128,137.573,118.438,128,106.667,128z M106.667,149.333c0,0,0-0.01,0-0.021l10.667,0.021H106.667z"/>
	<path style="fill:#303C42;" d="M362.667,170.667c11.771,0,21.333-9.573,21.333-21.333c0-11.76-9.563-21.333-21.333-21.333
		c-11.771,0-21.333,9.573-21.333,21.333C341.333,161.094,350.896,170.667,362.667,170.667z M362.667,149.313l10.667,0.021h-10.667
		C362.667,149.333,362.667,149.323,362.667,149.313z"/>
</g>
<g>
	<path style="opacity:0.2;fill:#FFFFFF;enable-background:new    ;" d="M426.667,21.333h-41.589
		c1.096,7.563,3.423,14.694,6.599,21.333h34.99C438.449,42.667,448,52.217,448,64V42.667C448,30.906,438.427,21.333,426.667,21.333z
		"/>
	<path style="opacity:0.2;fill:#FFFFFF;enable-background:new    ;" d="M368.984,42.667c-2.436-6.827-4.401-13.878-5.24-21.333
		H105.589c-0.839,7.456-2.803,14.507-5.24,21.333H368.984z"/>
	<path style="opacity:0.2;fill:#FFFFFF;enable-background:new    ;" d="M42.667,42.667h34.99c3.176-6.639,5.503-13.771,6.599-21.333
		H42.667c-11.76,0-21.333,9.573-21.333,21.333V64C21.333,52.217,30.884,42.667,42.667,42.667z"/>
</g>
<path style="fill:#303C42;" d="M245.333,213.333h21.333c5.896,0,10.667-4.771,10.667-10.667S272.563,192,266.667,192h-21.333
	c-17.646,0-32-14.354-32-32h32c5.896,0,10.667-4.771,10.667-10.667c0-5.896-4.771-10.667-10.667-10.667h-32
	c0-17.646,14.354-32,32-32h21.333c5.896,0,10.667-4.771,10.667-10.667c0-5.896-4.771-10.667-10.667-10.667h-21.333
	c-29.417,0-53.333,23.927-53.333,53.333c-5.896,0-10.667,4.771-10.667,10.667c0,5.896,4.771,10.667,10.667,10.667
	C192,189.406,215.917,213.333,245.333,213.333z"/>
<linearGradient id="SVGID_1_" gradientUnits="userSpaceOnUse" x1="-67.7858" y1="620.9866" x2="-44.2115" y2="609.998" gradientTransform="matrix(21.3333 0 0 -21.3333 1430.1112 13315.2227)">
	<stop  offset="0" style="stop-color:#FFFFFF;stop-opacity:0.2"/>
	<stop  offset="1" style="stop-color:#FFFFFF;stop-opacity:0"/>
</linearGradient>
<path style="fill:url(#SVGID_1_);" d="M426.667,0h-384C19.146,0,0,19.135,0,42.667V256c0,23.531,19.146,42.667,42.667,42.667H192
	v128c0,29.313,60.813,42.667,117.333,42.667s117.333-13.354,117.333-42.667v-128c23.521,0,42.667-19.135,42.667-42.667V42.667
	C469.333,19.135,450.188,0,426.667,0z"/>
<g>
</g>
<g>
</g>
<g>
</g>
<g>
</g>
<g>
</g>
<g>
</g>
<g>
</g>
<g>
</g>
<g>
</g>
<g>
</g>
<g>
</g>
<g>
</g>
<g>
</g>
<g>
</g>
<g>
</g>
</svg>
