<?xml version="1.0" encoding="iso-8859-1"?>
<!-- Generator: Adobe Illustrator 19.0.0, SVG Export Plug-In . SVG Version: 6.00 Build 0)  -->
<svg version="1.1" id="Capa_1" xmlns="http://www.w3.org/2000/svg" xmlns:xlink="http://www.w3.org/1999/xlink" x="0px" y="0px"
	 viewBox="0 0 511.999 511.999" style="enable-background:new 0 0 511.999 511.999;" xml:space="preserve">
<path style="fill:#83A1AE;" d="M420.951,7.5H91.049c-12.912,0-23.38,10.467-23.38,23.38v104.066L256,181.492l188.331-46.547V30.88
	C444.331,17.967,433.863,7.5,420.951,7.5z"/>
<path style="fill:#A1BAC5;" d="M67.669,481.12c0,12.912,10.467,23.38,23.38,23.38h329.903c12.912,0,23.38-10.467,23.38-23.38
	V133.546H67.669V481.12z"/>
<circle style="fill:#83A1AE;" cx="256" cy="319.02" r="123.15"/>
<path style="fill:#43C3F7;" d="M341.978,319.023c0-47.485-38.494-85.978-85.978-85.978s-85.978,38.494-85.978,85.978
	c0,2.498,0.13,4.964,0.339,7.408h170.423c0.194,0.289,0.45,0.668,0.769,1.142C341.83,324.76,341.978,321.909,341.978,319.023z"/>
<path style="fill:#3BABD9;" d="M340.365,325.809l-14.061-6.786c-8.884-4.287-19.238-4.287-28.122,0l0,0
	c-8.884,4.287-19.238,4.287-28.122,0s-19.238-4.287-28.122,0c-8.884,4.287-19.238,4.287-28.122,0l0,0
	c-8.884-4.287-19.238-4.287-28.122,0l-14.061,6.786l-1.274,0.622c3.759,44.013,40.653,78.57,85.639,78.57
	c44.598,0,81.26-33.958,85.553-77.428C340.788,326.437,340.365,325.809,340.365,325.809z"/>
<g>
	<path style="fill:#3E5864;" d="M214.703,56.985H132.37c-7.863,0-14.238,6.375-14.238,14.238s6.375,14.238,14.238,14.238h82.333
		c7.863,0,14.238-6.375,14.238-14.238S222.566,56.985,214.703,56.985z"/>
	<circle style="fill:#3E5864;" cx="326.76" cy="71.22" r="14.791"/>
	<circle style="fill:#3E5864;" cx="379.15" cy="71.22" r="14.791"/>
	<path style="fill:#3E5864;" d="M387.508,304.372H340.8c-8.092,0-14.651,6.56-14.651,14.651l0,0c0,8.091,6.56,14.651,14.651,14.651
		h46.708c8.091,0,14.651-6.56,14.651-14.651l0,0C402.159,310.931,395.6,304.372,387.508,304.372z"/>
</g>
<path d="M214.703,49.485H132.37c-11.986,0-21.738,9.751-21.738,21.737c0,11.987,9.751,21.738,21.738,21.738h82.333
	c11.986,0,21.738-9.752,21.738-21.738C236.441,59.236,226.689,49.485,214.703,49.485z M214.703,77.96H132.37
	c-3.715,0-6.738-3.022-6.738-6.738c0-3.715,3.022-6.737,6.738-6.737h82.333c3.715,0,6.738,3.022,6.738,6.737
	C221.441,74.938,218.418,77.96,214.703,77.96z"/>
<path d="M326.761,48.931c-12.292,0-22.291,10-22.291,22.291c0,12.292,10,22.292,22.291,22.292s22.292-10,22.292-22.292
	C349.052,58.931,339.052,48.931,326.761,48.931z M326.761,78.514c-4.021,0-7.291-3.271-7.291-7.292s3.271-7.291,7.291-7.291
	s7.292,3.271,7.292,7.291S330.781,78.514,326.761,78.514z"/>
<path d="M379.154,48.931c-12.292,0-22.292,10-22.292,22.291c0,12.292,10,22.292,22.292,22.292s22.292-10,22.292-22.292
	C401.446,58.931,391.446,48.931,379.154,48.931z M379.154,78.514c-4.021,0-7.292-3.271-7.292-7.292s3.271-7.291,7.292-7.291
	s7.292,3.271,7.292,7.291S383.175,78.514,379.154,78.514z"/>
<path d="M384.77,341.174h2.738c12.214,0,22.15-9.937,22.15-22.15c0-14.037-11.987-22.152-24.884-22.152
	c-10.62-62.31-64.842-108.503-128.775-108.503c-72.043,0-130.654,58.611-130.654,130.654S183.957,449.677,256,449.677
	C319.934,449.677,374.151,403.483,384.77,341.174z M394.659,319.023c0,3.943-3.208,7.151-7.15,7.151H340.83
	c-0.025,0-0.051-0.004-0.076-0.005c-9.07-0.088-9.228-14.237,0.002-14.293c0.024,0,0.048-0.004,0.072-0.004h46.681
	C391.451,311.872,394.659,315.08,394.659,319.023z M252.132,397.4c-33.271-1.73-62.91-25.854-71.835-57.876
	c-0.794-2.85-1.423-5.743-1.865-8.668c0,0,10.522-5.078,10.524-5.079c13.38-6.457,25.451,3.961,38.922,3.961
	c5.962,0,11.951-1.37,17.321-3.961c13.518-6.524,25.264,3.961,38.923,3.961c12.323,0,22.762-9.094,35.181-5.377
	c1.658,6.673,6.348,12.156,12.518,14.904c-9.022,34.134-39.866,58.236-75.821,58.236C254.707,397.501,253.418,397.467,252.132,397.4
	z M320.914,309.275c-2.85-0.636-5.768-0.966-8.678-0.966c-13.741,0-25.173,10.591-38.915,3.959c-10.848-5.236-23.794-5.236-34.642,0
	c-13.462,6.497-25.395-3.961-38.923-3.961c-5.962,0-11.952,1.37-17.32,3.961l-4.781,2.307c2.315-41.211,36.564-74.031,78.344-74.031
	c35.957,0,66.802,24.1,75.825,58.234C327.076,300.892,323.203,304.625,320.914,309.275z M140.346,319.023
	c0-63.772,51.882-115.654,115.654-115.654c55.727,0,103.118,39.638,113.53,93.503h-22.739
	c-10.08-41.688-47.284-71.327-90.791-71.327c-51.544,0-93.478,41.934-93.478,93.478c0,10.19,1.645,20.002,4.673,29.192
	c0.005,0.015,0.01,0.03,0.015,0.045c12.166,37.714,48.744,64.003,88.247,64.239c0.181,0.002,0.362,0.002,0.543,0.002
	c43.507,0,80.711-29.639,90.791-71.327h22.739c-10.413,53.865-57.803,93.503-113.53,93.503
	C192.228,434.677,140.346,382.794,140.346,319.023z"/>
<path d="M67.669,195.73c-4.142,0-7.5,3.358-7.5,7.5v277.89c0,17.027,13.853,30.879,30.879,30.879H420.95
	c17.027,0,30.88-13.853,30.88-30.879V30.879C451.831,13.853,437.978,0,420.951,0H91.049c-17.027,0-30.88,13.853-30.88,30.879V173.23
	c0,4.142,3.358,7.5,7.5,7.5s7.5-3.358,7.5-7.5v-32.185h361.662V481.12c0,8.756-7.124,15.879-15.88,15.879H91.049
	c-8.756,0-15.879-7.124-15.879-15.879V203.23C75.169,199.088,71.811,195.73,67.669,195.73z M75.169,126.046V30.879
	c0-8.755,7.124-15.879,15.88-15.879h329.902c8.756,0,15.88,7.124,15.88,15.879v95.166L75.169,126.046L75.169,126.046z"/>
<g>
</g>
<g>
</g>
<g>
</g>
<g>
</g>
<g>
</g>
<g>
</g>
<g>
</g>
<g>
</g>
<g>
</g>
<g>
</g>
<g>
</g>
<g>
</g>
<g>
</g>
<g>
</g>
<g>
</g>
</svg>
