<?xml version="1.0" encoding="iso-8859-1"?>
<!-- Generator: Adobe Illustrator 19.0.0, SVG Export Plug-In . SVG Version: 6.00 Build 0)  -->
<svg version="1.1" id="Layer_1" xmlns="http://www.w3.org/2000/svg" xmlns:xlink="http://www.w3.org/1999/xlink" x="0px" y="0px"
	 viewBox="0 0 511.999 511.999" style="enable-background:new 0 0 511.999 511.999;" xml:space="preserve">
<path style="fill:#5A5D6F;" d="M335.448,176.551H176.551c-9.751,0-17.655-7.904-17.655-17.655l0,0
	c0-9.751,7.904-17.655,17.655-17.655h158.897c9.751,0,17.655,7.904,17.655,17.655l0,0
	C353.103,168.647,345.198,176.551,335.448,176.551z"/>
<path style="fill:#6F7588;" d="M406.068,158.896H109.444c-58.325,0-108.359,45.63-109.426,103.946
	C-1.07,322.254,46.766,370.758,105.93,370.758c36.135,0,67.974-18.141,87.081-45.769c3.191-4.614,8.585-7.197,14.195-7.197h97.597
	c5.643,0,11.028,2.641,14.241,7.278c19.551,28.213,52.387,46.51,89.51,45.658c55.161-1.267,101.262-46.62,103.367-101.756
	C514.225,208.581,465.949,158.896,406.068,158.896z"/>
<circle style="fill:#5A5D6F;" cx="105.93" cy="264.827" r="79.448"/>
<g>
	<circle style="fill:#E1EAF6;" cx="406.068" cy="264.827" r="79.448"/>
	<path style="fill:#E1EAF6;" d="M140.689,249.931h-14.897c-2.742,0-4.966-2.223-4.966-4.966v-14.897
		c0-2.742-2.223-4.966-4.966-4.966H95.999c-2.742,0-4.966,2.223-4.966,4.966v14.897c0,2.742-2.223,4.966-4.966,4.966H71.172
		c-2.742,0-4.966,2.223-4.966,4.966v19.862c0,2.742,2.223,4.966,4.966,4.966h14.897c2.742,0,4.966,2.223,4.966,4.966v14.897
		c0,2.742,2.223,4.966,4.966,4.966h19.862c2.742,0,4.966-2.223,4.966-4.966v-14.897c0-2.742,2.223-4.966,4.966-4.966h14.897
		c2.742,0,4.966-2.223,4.966-4.966v-19.862C145.655,252.154,143.431,249.931,140.689,249.931z"/>
</g>
<circle style="fill:#D4DEED;" cx="105.93" cy="264.827" r="13.241"/>
<path style="fill:#5A5D6F;" d="M278.068,211.862h-44.175c-7.313,0-13.241-5.929-13.241-13.241l0,0
	c0-7.313,5.929-13.241,13.241-13.241h44.175c7.313,0,13.241,5.929,13.241,13.241l0,0
	C291.31,205.933,285.381,211.862,278.068,211.862z"/>
<g>
	<path style="fill:#D4DEED;" d="M357.526,284.689c-5.181,0-10.311-2.268-13.793-6.625c-6.094-7.616-4.862-18.724,2.759-24.814
		l44.138-35.31c7.604-6.099,18.724-4.862,24.81,2.754c6.094,7.616,4.862,18.724-2.759,24.814l-44.138,35.31
		C365.293,283.426,361.396,284.689,357.526,284.689z"/>
	<path style="fill:#D4DEED;" d="M410.491,315.586c-5.181,0-10.311-2.268-13.793-6.625c-6.094-7.616-4.862-18.724,2.759-24.814
		l44.138-35.31c7.595-6.103,18.733-4.853,24.81,2.754c6.094,7.616,4.862,18.724-2.759,24.814l-44.138,35.31
		C418.258,314.322,414.362,315.586,410.491,315.586z"/>
</g>
<circle style="fill:#00DCC7;" cx="357.517" cy="267.034" r="17.655"/>
<circle style="fill:#62B9FF;" cx="401.655" cy="231.724" r="17.655"/>
<circle style="fill:#FF6464;" cx="454.62" cy="262.62" r="17.655"/>
<circle style="fill:#FFCD34;" cx="410.482" cy="297.931" r="17.655"/>
<circle style="fill:#D4DEED;" cx="229.517" cy="264.827" r="13.241"/>
<circle style="fill:#FF6464;" cx="282.482" cy="264.827" r="13.241"/>
<g>
</g>
<g>
</g>
<g>
</g>
<g>
</g>
<g>
</g>
<g>
</g>
<g>
</g>
<g>
</g>
<g>
</g>
<g>
</g>
<g>
</g>
<g>
</g>
<g>
</g>
<g>
</g>
<g>
</g>
</svg>
